<svg width="218" height="70" viewBox="0 0 218 70" fill="none" xmlns="http://www.w3.org/2000/svg">
<rect width="218" height="70" rx="4" fill="url(#paint0_linear_67_2)"/>
<path d="M43.395 51.88C42.195 51.88 41.235 51.6133 40.515 51.08C39.795 50.52 39.235 49.8133 38.835 48.96C38.4617 48.08 38.1817 47.1467 37.995 46.16C35.7283 46.1333 33.8483 46.0267 32.355 45.84C30.8617 45.6533 29.7417 45.28 28.995 44.72C28.2483 44.1333 27.875 43.2533 27.875 42.08C27.875 40.4267 28.6083 39.36 30.075 38.88C31.5683 38.3733 33.795 38.0933 36.755 38.04C36.675 37.5867 36.595 37.1333 36.515 36.68C36.4617 36.2267 36.4083 35.8 36.355 35.4C34.2217 35.3467 32.4483 35.2267 31.035 35.04C29.6483 34.8267 28.6083 34.44 27.915 33.88C27.2217 33.2933 26.875 32.4267 26.875 31.28C26.875 29.68 27.5683 28.6267 28.955 28.12C30.3683 27.6133 32.4883 27.32 35.315 27.24C35.5017 24.84 36.9283 23.64 39.595 23.64C40.6883 23.64 41.5817 23.92 42.275 24.48C42.995 25.04 43.5683 25.96 43.995 27.24C46.075 27.2667 47.795 27.3867 49.155 27.6C50.5417 27.7867 51.5683 28.1733 52.235 28.76C52.9283 29.32 53.275 30.16 53.275 31.28C53.275 32.8267 52.6217 33.8667 51.315 34.4C50.035 34.9333 48.1017 35.24 45.515 35.32C45.595 35.7733 45.6617 36.2267 45.715 36.68C45.795 37.1333 45.8617 37.5867 45.915 38.04C48.715 38.12 50.8083 38.4267 52.195 38.96C53.5817 39.4667 54.275 40.5067 54.275 42.08C54.275 43.5733 53.6617 44.5867 52.435 45.12C51.235 45.6533 49.4083 45.9733 46.955 46.08C46.9817 46.5867 46.995 47.0267 46.995 47.4C46.995 48.6533 46.715 49.72 46.155 50.6C45.6217 51.4533 44.7017 51.88 43.395 51.88ZM53.195 25.56C52.395 25.56 51.8617 25.24 51.595 24.6C51.355 23.9333 51.235 23.0933 51.235 22.08C51.235 21.2267 51.3683 20.4667 51.635 19.8C51.9017 19.1067 52.4483 18.76 53.275 18.76C54.715 18.76 55.435 19.7867 55.435 21.84C55.435 22.8533 55.275 23.7333 54.955 24.48C54.635 25.2 54.0483 25.56 53.195 25.56ZM48.235 25.56C47.4617 25.56 46.9283 25.2533 46.635 24.64C46.3417 24 46.195 23.1067 46.195 21.96C46.195 20.9733 46.3417 20.2 46.635 19.64C46.9283 19.0533 47.4617 18.76 48.235 18.76C49.0083 18.76 49.555 19.0533 49.875 19.64C50.195 20.2 50.355 20.9867 50.355 22C50.355 23.12 50.195 24 49.875 24.64C49.555 25.2533 49.0083 25.56 48.235 25.56ZM58.8203 51.52C57.8603 51.4133 57.127 51.0667 56.6203 50.48C56.1136 49.8667 55.847 49.1867 55.8203 48.44C55.7936 47.6933 56.0203 47.0267 56.5003 46.44C57.007 45.8267 57.7803 45.44 58.8203 45.28C59.1403 45.2267 59.7136 45.1867 60.5403 45.16C61.367 45.1333 62.327 45.12 63.4203 45.12C64.5403 45.0933 65.687 45.08 66.8603 45.08C67.1803 43.88 67.487 42.64 67.7803 41.36C68.1003 40.0533 68.327 39.0267 68.4603 38.28C67.9536 38.28 67.207 38.28 66.2203 38.28C65.2603 38.2533 64.2203 38.2133 63.1003 38.16C62.007 38.1067 61.007 38.04 60.1003 37.96C59.5936 37.9067 59.0736 37.7733 58.5403 37.56C58.007 37.32 57.567 36.9733 57.2203 36.52C56.8736 36.0667 56.7003 35.5067 56.7003 34.84C56.7003 33.8267 57.0603 33.0267 57.7803 32.44C58.527 31.8533 59.5403 31.4267 60.8203 31.16C62.1003 30.8933 63.5536 30.76 65.1803 30.76C66.5403 30.76 67.8336 30.8667 69.0603 31.08C70.3136 31.2667 71.4203 31.6267 72.3803 32.16C73.367 32.6933 74.1403 33.4533 74.7003 34.44C75.2603 35.4267 75.5403 36.7067 75.5403 38.28C75.5403 39.4533 75.4203 40.6533 75.1803 41.88C74.9403 43.1067 74.6736 44.2133 74.3803 45.2C74.9403 45.2267 75.3536 45.2533 75.6203 45.28C76.7936 45.4133 77.6336 45.8 78.1403 46.44C78.6736 47.0533 78.9003 47.7467 78.8203 48.52C78.767 49.2933 78.447 49.9867 77.8603 50.6C77.3003 51.1867 76.5136 51.4933 75.5003 51.52C75.1803 51.5467 74.5803 51.5733 73.7003 51.6C72.847 51.6 71.847 51.6133 70.7003 51.64C69.5536 51.64 68.3403 51.6533 67.0603 51.68C65.807 51.68 64.607 51.68 63.4603 51.68C62.3136 51.6533 61.327 51.64 60.5003 51.64C59.6736 51.6133 59.1136 51.5733 58.8203 51.52ZM96.2053 51.88C95.1386 51.88 94.2986 51.6267 93.6853 51.12C93.0986 50.5867 92.8053 49.88 92.8053 49C92.8053 48.4667 92.9653 47.9733 93.2853 47.52C93.632 47.04 94.0986 46.6667 94.6853 46.4C96.2853 45.68 97.5253 44.9067 98.4053 44.08C99.312 43.2533 99.9653 42.3867 100.365 41.48C100.765 40.5733 101.005 39.6667 101.085 38.76C101.192 37.8267 101.245 36.9067 101.245 36H90.3653C90.3653 36.9067 90.3386 37.8133 90.2853 38.72C90.2586 39.6 90.1386 40.4267 89.9253 41.2C89.7386 41.9467 89.4053 42.5733 88.9253 43.08C88.4453 43.5867 87.752 43.9067 86.8453 44.04C85.2186 44.28 83.912 43.7333 82.9253 42.4C81.9386 41.04 81.4453 39.08 81.4453 36.52C81.4453 34.0667 81.7653 32.2 82.4053 30.92C83.072 29.6133 84.1386 28.7067 85.6053 28.2C87.072 27.6933 89.032 27.3867 91.4853 27.28C91.5386 26.5333 91.672 25.8133 91.8853 25.12C92.1253 24.4267 92.5386 23.8667 93.1253 23.44C93.7386 22.9867 94.6186 22.76 95.7653 22.76C96.9653 22.76 97.872 22.9867 98.4853 23.44C99.0986 23.8667 99.512 24.4267 99.7253 25.12C99.9653 25.8133 100.099 26.5333 100.125 27.28C102.525 27.3867 104.432 27.7067 105.845 28.24C107.285 28.7467 108.312 29.6533 108.925 30.96C109.565 32.24 109.885 34.0933 109.885 36.52C109.885 38.5733 109.539 40.52 108.845 42.36C108.179 44.2 107.232 45.84 106.005 47.28C104.779 48.6933 103.325 49.8133 101.645 50.64C99.992 51.4667 98.1786 51.88 96.2053 51.88ZM123.906 52C122.546 52 121.532 51.7333 120.866 51.2C120.226 50.6667 119.906 49.9867 119.906 49.16C119.906 48.3067 120.119 47.5733 120.546 46.96C120.999 46.32 121.839 45.7067 123.066 45.12C124.319 44.5067 125.279 43.88 125.946 43.24C126.639 42.5733 127.119 41.76 127.386 40.8C127.679 39.8133 127.852 38.5333 127.906 36.96C127.986 35.3867 128.026 33.3733 128.026 30.92C128.026 29.72 128.159 28.5867 128.426 27.52C128.692 26.4267 129.172 25.5467 129.866 24.88C130.586 24.1867 131.612 23.84 132.946 23.84C134.306 23.84 135.346 24.24 136.066 25.04C136.812 25.84 137.319 26.92 137.586 28.28C137.879 29.6133 138.026 31.08 138.026 32.68C138.026 36.8133 137.426 40.32 136.226 43.2C135.026 46.08 133.359 48.2667 131.226 49.76C129.119 51.2533 126.679 52 123.906 52ZM117.066 43.28C115.919 43.28 115.026 42.9867 114.386 42.4C113.746 41.8133 113.266 41.0533 112.946 40.12C112.652 39.16 112.466 38.1067 112.386 36.96C112.306 35.8133 112.266 34.68 112.266 33.56C112.266 32.3867 112.306 31.2267 112.386 30.08C112.466 28.9333 112.652 27.8933 112.946 26.96C113.266 26.0267 113.746 25.28 114.386 24.72C115.026 24.16 115.919 23.88 117.066 23.88C118.239 23.88 119.146 24.16 119.786 24.72C120.452 25.28 120.932 26.0267 121.226 26.96C121.519 27.8933 121.706 28.9333 121.786 30.08C121.866 31.2267 121.906 32.3867 121.906 33.56C121.906 34.68 121.866 35.8133 121.786 36.96C121.706 38.1067 121.519 39.16 121.226 40.12C120.932 41.0533 120.452 41.8133 119.786 42.4C119.146 42.9867 118.239 43.28 117.066 43.28ZM143.728 51.92C142.582 51.92 141.702 51.64 141.088 51.08C140.475 50.52 140.168 49.8267 140.168 49C140.168 48.4667 140.315 47.92 140.608 47.36C140.902 46.8 141.382 46.3333 142.048 45.96C143.035 45.4 144.128 44.8 145.328 44.16C146.528 43.52 147.715 42.76 148.888 41.88C150.088 41 151.208 39.9467 152.248 38.72C153.288 37.4667 154.142 35.9467 154.808 34.16C153.422 34.16 152.008 34.1867 150.568 34.24C149.155 34.2667 147.795 34.2667 146.488 34.24C145.182 34.1867 144.008 34.04 142.968 33.8C141.955 33.56 141.142 33.16 140.528 32.6C139.942 32.0133 139.648 31.2133 139.648 30.2C139.648 29.08 139.995 28.1733 140.688 27.48C141.408 26.76 142.328 26.2267 143.448 25.88C144.568 25.5067 145.755 25.2533 147.008 25.12C148.288 24.9867 149.488 24.92 150.608 24.92C152.688 24.92 154.568 25.0267 156.248 25.24C157.928 25.4533 159.368 25.8667 160.568 26.48C161.768 27.0667 162.688 27.9333 163.328 29.08C163.968 30.2267 164.288 31.72 164.288 33.56C164.288 34.7867 163.942 36.1067 163.248 37.52C162.582 38.9333 161.688 40.3467 160.568 41.76C161.955 42.9333 163.062 44.0533 163.888 45.12C164.742 46.16 165.168 47.28 165.168 48.48C165.168 49.5467 164.795 50.4 164.048 51.04C163.302 51.68 162.382 52 161.288 52C160.168 52 159.035 51.5733 157.888 50.72C156.768 49.84 155.608 48.8 154.408 47.6C152.648 48.88 150.835 49.92 148.968 50.72C147.128 51.52 145.382 51.92 143.728 51.92ZM172.367 51.96C171.301 51.96 170.407 51.7333 169.687 51.28C168.994 50.8 168.421 50.0267 167.967 48.96C167.754 48.4533 167.594 47.68 167.487 46.64C167.381 45.5733 167.301 44.44 167.247 43.24C167.221 42.0133 167.207 40.88 167.207 39.84C167.207 38.7733 167.207 37.9867 167.207 37.48C167.207 36.2533 167.194 35.0133 167.167 33.76C167.167 32.48 167.194 31.2667 167.247 30.12C167.327 28.9733 167.487 27.9867 167.727 27.16C168.021 26.0667 168.594 25.2533 169.447 24.72C170.327 24.1867 171.301 23.92 172.367 23.92C173.487 23.92 174.461 24.1867 175.287 24.72C176.141 25.2533 176.741 26.0667 177.087 27.16C177.407 28.12 177.594 29.1333 177.647 30.2C177.727 31.24 177.754 32.4933 177.727 33.96C178.581 34.0667 179.474 34.2267 180.407 34.44C181.367 34.6267 182.274 34.8267 183.127 35.04C183.981 35.2533 184.674 35.4267 185.207 35.56C187.314 36.1467 188.821 36.84 189.727 37.64C190.661 38.44 191.127 39.4267 191.127 40.6C191.127 41.48 190.794 42.2933 190.127 43.04C189.487 43.7867 188.567 44.16 187.367 44.16C186.167 44.16 184.727 44.0267 183.047 43.76C181.394 43.4667 179.594 43.0667 177.647 42.56C177.594 43.6533 177.487 44.7467 177.327 45.84C177.167 46.9333 176.927 47.9733 176.607 48.96C176.234 50.0267 175.634 50.8 174.807 51.28C174.007 51.7333 173.194 51.96 172.367 51.96Z" fill="white"/>
<defs>
<linearGradient id="paint0_linear_67_2" x1="0" y1="35" x2="218" y2="35" gradientUnits="userSpaceOnUse">
<stop stop-color="#D49270"/>
<stop offset="1" stop-color="#6E4C3A"/>
</linearGradient>
</defs>
</svg>
