<svg width="148" height="148" viewBox="0 0 148 148" fill="none" xmlns="http://www.w3.org/2000/svg">
<circle cx="74" cy="74" r="74" fill="url(#paint0_linear_65_44)"/>
<path d="M44.024 74.856C42.584 74.856 41.432 74.536 40.568 73.896C39.704 73.224 39.032 72.376 38.552 71.352C38.104 70.296 37.768 69.176 37.544 67.992C34.824 67.96 32.568 67.832 30.776 67.608C28.984 67.384 27.64 66.936 26.744 66.264C25.848 65.56 25.4 64.504 25.4 63.096C25.4 61.112 26.28 59.832 28.04 59.256C29.832 58.648 32.504 58.312 36.056 58.248C35.96 57.704 35.864 57.16 35.768 56.616C35.704 56.072 35.64 55.56 35.576 55.08C33.016 55.016 30.888 54.872 29.192 54.648C27.528 54.392 26.28 53.928 25.448 53.256C24.616 52.552 24.2 51.512 24.2 50.136C24.2 48.216 25.032 46.952 26.696 46.344C28.392 45.736 30.936 45.384 34.328 45.288C34.552 42.408 36.264 40.968 39.464 40.968C40.776 40.968 41.848 41.304 42.68 41.976C43.544 42.648 44.232 43.752 44.744 45.288C47.24 45.32 49.304 45.464 50.936 45.72C52.6 45.944 53.832 46.408 54.632 47.112C55.464 47.784 55.88 48.792 55.88 50.136C55.88 51.992 55.096 53.24 53.528 53.88C51.992 54.52 49.672 54.888 46.568 54.984C46.664 55.528 46.744 56.072 46.808 56.616C46.904 57.16 46.984 57.704 47.048 58.248C50.408 58.344 52.92 58.712 54.584 59.352C56.248 59.96 57.08 61.208 57.08 63.096C57.08 64.888 56.344 66.104 54.872 66.744C53.432 67.384 51.24 67.768 48.296 67.896C48.328 68.504 48.344 69.032 48.344 69.48C48.344 70.984 48.008 72.264 47.336 73.32C46.696 74.344 45.592 74.856 44.024 74.856ZM55.784 43.272C54.824 43.272 54.184 42.888 53.864 42.12C53.576 41.32 53.432 40.312 53.432 39.096C53.432 38.072 53.592 37.16 53.912 36.36C54.232 35.528 54.888 35.112 55.88 35.112C57.608 35.112 58.472 36.344 58.472 38.808C58.472 40.024 58.28 41.08 57.896 41.976C57.512 42.84 56.808 43.272 55.784 43.272ZM49.832 43.272C48.904 43.272 48.264 42.904 47.912 42.168C47.56 41.4 47.384 40.328 47.384 38.952C47.384 37.768 47.56 36.84 47.912 36.168C48.264 35.464 48.904 35.112 49.832 35.112C50.76 35.112 51.416 35.464 51.8 36.168C52.184 36.84 52.376 37.784 52.376 39C52.376 40.344 52.184 41.4 51.8 42.168C51.416 42.904 50.76 43.272 49.832 43.272ZM62.5344 74.424C61.3824 74.296 60.5024 73.88 59.8944 73.176C59.2864 72.44 58.9664 71.624 58.9344 70.728C58.9024 69.832 59.1744 69.032 59.7504 68.328C60.3584 67.592 61.2864 67.128 62.5344 66.936C62.9184 66.872 63.6064 66.824 64.5984 66.792C65.5904 66.76 66.7424 66.744 68.0544 66.744C69.3984 66.712 70.7744 66.696 72.1824 66.696C72.5664 65.256 72.9344 63.768 73.2864 62.232C73.6704 60.664 73.9424 59.432 74.1024 58.536C73.4944 58.536 72.5984 58.536 71.4144 58.536C70.2624 58.504 69.0144 58.456 67.6704 58.392C66.3584 58.328 65.1584 58.248 64.0704 58.152C63.4624 58.088 62.8384 57.928 62.1984 57.672C61.5584 57.384 61.0304 56.968 60.6144 56.424C60.1984 55.88 59.9904 55.208 59.9904 54.408C59.9904 53.192 60.4224 52.232 61.2864 51.528C62.1824 50.824 63.3984 50.312 64.9344 49.992C66.4704 49.672 68.2144 49.512 70.1664 49.512C71.7984 49.512 73.3504 49.64 74.8224 49.896C76.3264 50.12 77.6544 50.552 78.8064 51.192C79.9904 51.832 80.9184 52.744 81.5904 53.928C82.2624 55.112 82.5984 56.648 82.5984 58.536C82.5984 59.944 82.4544 61.384 82.1664 62.856C81.8784 64.328 81.5584 65.656 81.2064 66.84C81.8784 66.872 82.3744 66.904 82.6944 66.936C84.1024 67.096 85.1104 67.56 85.7184 68.328C86.3584 69.064 86.6304 69.896 86.5344 70.824C86.4704 71.752 86.0864 72.584 85.3824 73.32C84.7104 74.024 83.7664 74.392 82.5504 74.424C82.1664 74.456 81.4464 74.488 80.3904 74.52C79.3664 74.52 78.1664 74.536 76.7904 74.568C75.4144 74.568 73.9584 74.584 72.4224 74.616C70.9184 74.616 69.4784 74.616 68.1024 74.616C66.7264 74.584 65.5424 74.568 64.5504 74.568C63.5584 74.536 62.8864 74.488 62.5344 74.424ZM107.396 74.856C106.116 74.856 105.108 74.552 104.372 73.944C103.668 73.304 103.316 72.456 103.316 71.4C103.316 70.76 103.508 70.168 103.892 69.624C104.308 69.048 104.868 68.6 105.572 68.28C107.492 67.416 108.98 66.488 110.036 65.496C111.124 64.504 111.908 63.464 112.388 62.376C112.868 61.288 113.156 60.2 113.252 59.112C113.38 57.992 113.444 56.888 113.444 55.8H100.388C100.388 56.888 100.356 57.976 100.292 59.064C100.26 60.12 100.116 61.112 99.8604 62.04C99.6364 62.936 99.2364 63.688 98.6604 64.296C98.0844 64.904 97.2524 65.288 96.1644 65.448C94.2124 65.736 92.6444 65.08 91.4604 63.48C90.2764 61.848 89.6844 59.496 89.6844 56.424C89.6844 53.48 90.0684 51.24 90.8364 49.704C91.6364 48.136 92.9164 47.048 94.6764 46.44C96.4364 45.832 98.7884 45.464 101.732 45.336C101.796 44.44 101.956 43.576 102.212 42.744C102.5 41.912 102.996 41.24 103.7 40.728C104.436 40.184 105.492 39.912 106.868 39.912C108.308 39.912 109.396 40.184 110.132 40.728C110.868 41.24 111.364 41.912 111.62 42.744C111.908 43.576 112.068 44.44 112.1 45.336C114.98 45.464 117.268 45.848 118.964 46.488C120.692 47.096 121.924 48.184 122.66 49.752C123.428 51.288 123.812 53.512 123.812 56.424C123.812 58.888 123.396 61.224 122.564 63.432C121.764 65.64 120.628 67.608 119.156 69.336C117.684 71.032 115.94 72.376 113.924 73.368C111.94 74.36 109.764 74.856 107.396 74.856Z" fill="white"/>
<path d="M40.6524 117C39.0204 117 37.8044 116.68 37.0044 116.04C36.2364 115.4 35.8524 114.584 35.8524 113.592C35.8524 112.568 36.1084 111.688 36.6204 110.952C37.1644 110.184 38.1724 109.448 39.6444 108.744C41.1484 108.008 42.3004 107.256 43.1004 106.488C43.9324 105.688 44.5084 104.712 44.8284 103.56C45.1804 102.376 45.3884 100.84 45.4524 98.952C45.5484 97.064 45.5964 94.648 45.5964 91.704C45.5964 90.264 45.7564 88.904 46.0764 87.624C46.3964 86.312 46.9724 85.256 47.8044 84.456C48.6684 83.624 49.9004 83.208 51.5004 83.208C53.1324 83.208 54.3804 83.688 55.2444 84.648C56.1404 85.608 56.7484 86.904 57.0684 88.536C57.4204 90.136 57.5964 91.896 57.5964 93.816C57.5964 98.776 56.8764 102.984 55.4364 106.44C53.9964 109.896 51.9964 112.52 49.4364 114.312C46.9084 116.104 43.9804 117 40.6524 117ZM32.4444 106.536C31.0684 106.536 29.9964 106.184 29.2284 105.48C28.4604 104.776 27.8844 103.864 27.5004 102.744C27.1484 101.592 26.9244 100.328 26.8284 98.952C26.7324 97.576 26.6844 96.216 26.6844 94.872C26.6844 93.464 26.7324 92.072 26.8284 90.696C26.9244 89.32 27.1484 88.072 27.5004 86.952C27.8844 85.832 28.4604 84.936 29.2284 84.264C29.9964 83.592 31.0684 83.256 32.4444 83.256C33.8524 83.256 34.9404 83.592 35.7084 84.264C36.5084 84.936 37.0844 85.832 37.4364 86.952C37.7884 88.072 38.0124 89.32 38.1084 90.696C38.2044 92.072 38.2524 93.464 38.2524 94.872C38.2524 96.216 38.2044 97.576 38.1084 98.952C38.0124 100.328 37.7884 101.592 37.4364 102.744C37.0844 103.864 36.5084 104.776 35.7084 105.48C34.9404 106.184 33.8524 106.536 32.4444 106.536ZM64.4398 116.904C63.0638 116.904 62.0078 116.568 61.2718 115.896C60.5358 115.224 60.1678 114.392 60.1678 113.4C60.1678 112.76 60.3438 112.104 60.6958 111.432C61.0478 110.76 61.6238 110.2 62.4238 109.752C63.6078 109.08 64.9198 108.36 66.3598 107.592C67.7998 106.824 69.2238 105.912 70.6318 104.856C72.0718 103.8 73.4158 102.536 74.6638 101.064C75.9118 99.56 76.9358 97.736 77.7358 95.592C76.0718 95.592 74.3758 95.624 72.6478 95.688C70.9518 95.72 69.3198 95.72 67.7518 95.688C66.1838 95.624 64.7758 95.448 63.5278 95.16C62.3118 94.872 61.3358 94.392 60.5998 93.72C59.8958 93.016 59.5438 92.056 59.5438 90.84C59.5438 89.496 59.9598 88.408 60.7918 87.576C61.6558 86.712 62.7598 86.072 64.1038 85.656C65.4478 85.208 66.8718 84.904 68.3758 84.744C69.9118 84.584 71.3518 84.504 72.6958 84.504C75.1918 84.504 77.4478 84.632 79.4638 84.888C81.4798 85.144 83.2078 85.64 84.6478 86.376C86.0878 87.08 87.1918 88.12 87.9598 89.496C88.7278 90.872 89.1118 92.664 89.1118 94.872C89.1118 96.344 88.6958 97.928 87.8638 99.624C87.0638 101.32 85.9918 103.016 84.6478 104.712C86.3118 106.12 87.6398 107.464 88.6318 108.744C89.6558 109.992 90.1678 111.336 90.1678 112.776C90.1678 114.056 89.7198 115.08 88.8238 115.848C87.9278 116.616 86.8238 117 85.5118 117C84.1678 117 82.8078 116.488 81.4318 115.464C80.0878 114.408 78.6958 113.16 77.2558 111.72C75.1438 113.256 72.9678 114.504 70.7278 115.464C68.5198 116.424 66.4238 116.904 64.4398 116.904ZM98.8063 116.952C97.5263 116.952 96.4543 116.68 95.5903 116.136C94.7583 115.56 94.0703 114.632 93.5263 113.352C93.2703 112.744 93.0783 111.816 92.9503 110.568C92.8223 109.288 92.7263 107.928 92.6623 106.488C92.6303 105.016 92.6143 103.656 92.6143 102.408C92.6143 101.128 92.6143 100.184 92.6143 99.576C92.6143 98.104 92.5983 96.616 92.5663 95.112C92.5663 93.576 92.5983 92.12 92.6623 90.744C92.7583 89.368 92.9503 88.184 93.2383 87.192C93.5903 85.88 94.2783 84.904 95.3023 84.264C96.3583 83.624 97.5263 83.304 98.8063 83.304C100.15 83.304 101.318 83.624 102.31 84.264C103.334 84.904 104.054 85.88 104.47 87.192C104.854 88.344 105.078 89.56 105.142 90.84C105.238 92.088 105.27 93.592 105.238 95.352C106.262 95.48 107.334 95.672 108.454 95.928C109.606 96.152 110.694 96.392 111.718 96.648C112.742 96.904 113.574 97.112 114.214 97.272C116.742 97.976 118.55 98.808 119.638 99.768C120.758 100.728 121.318 101.912 121.318 103.32C121.318 104.376 120.918 105.352 120.118 106.248C119.35 107.144 118.246 107.592 116.806 107.592C115.366 107.592 113.638 107.432 111.622 107.112C109.638 106.76 107.478 106.28 105.142 105.672C105.078 106.984 104.95 108.296 104.758 109.608C104.566 110.92 104.278 112.168 103.894 113.352C103.446 114.632 102.726 115.56 101.734 116.136C100.774 116.68 99.7983 116.952 98.8063 116.952Z" fill="white"/>
<defs>
<linearGradient id="paint0_linear_65_44" x1="35.5" y1="16.5" x2="125.5" y2="124.5" gradientUnits="userSpaceOnUse">
<stop stop-color="#D49270"/>
<stop offset="1" stop-color="#6E4C3A"/>
</linearGradient>
</defs>
</svg>
